<svg xmlns="http://www.w3.org/2000/svg"><symbol id="orders" viewBox="0 0 60 60"><path d="M16 28h13a1 1 0 0 0 0-2H16a1 1 0 0 0 0 2zm0 7a1 1 0 0 0 1 1h23a1 1 0 0 0 0-2H17a1 1 0 0 0-1 1zm26.293-13.293A1 1 0 0 0 43 22h.1a1 1 0 0 0 .733-.44l8-12a1 1 0 1 0-1.664-1.11l-7.324 10.981-3.138-3.138a1 1 0 0 0-1.414 1.414z" data-original="#000000"/><path d="M1 16h5.861l4.181 23.47c.359 2.02.583 3.274.768 4.051L9.5 47.035a3.24 3.24 0 0 0 2.748 4.958h2.787A4.947 4.947 0 0 0 14 55a5 5 0 1 0 8.971-3h10.056A4.953 4.953 0 0 0 32 55a5 5 0 0 0 10 0 4.953 4.953 0 0 0-1.026-3H44a1 1 0 0 0 0-2l-31.756-.007a1.241 1.241 0 0 1-1.065-1.878l2.208-3.352 29.072-1.524a3.418 3.418 0 0 0 3.078-2.407l3.472-11.392A15.033 15.033 0 1 0 30.558 19H9.427l-.743-4.176A1 1 0 0 0 7.7 14H1a1 1 0 0 0 0 2zm18 42a3 3 0 1 1 3-3 3 3 0 0 1-3 3zm18 0a3 3 0 1 1 3-3 3 3 0 0 1-3 3zm8-56a13 13 0 1 1-13 13A13.015 13.015 0 0 1 45 2zM31.261 21a14.875 14.875 0 0 0 15.521 8.884l-3.157 10.361a1.392 1.392 0 0 1-1.268 1l-28.7 1.5L9.784 21z" data-original="#000000"/></symbol><symbol id="pay" viewBox="0 0 124 124"><g fill="#FFF"><path d="M118.052 26.953L29.239 11.111c-3.892-.7-7.673 2.023-8.348 5.894l-5.72 32.814H7c-3.86 0-7 3.141-7 7v49.18c0 3.859 3.14 7 7 7h90.587c3.86 0 7-3.141 7-7V88.706c2.595.463 5.1 1.009 7.499-.426 1.8-1.077 3.091-2.934 3.452-5.003l8.352-47.916c.687-3.941-1.932-7.713-5.838-8.408zm-93.22-9.261c.3-1.719 1.968-2.954 3.705-2.644L117.35 30.89c1.743.311 2.909 2.008 2.6 3.783l-1.378 7.91L23.45 25.617zm75.755 88.307c0 1.654-1.346 3-3 3H7c-1.654 0-3-1.346-3-3v-49.18c0-1.654 1.346-3 3-3h90.587c1.654 0 3 1.346 3 3zm11.011-23.409c-.622 3.557-4.572 2.488-7.011 2.053V56.819c0-3.859-3.14-7-7-7H19.232l3.531-20.262 5.794 1.033 89.327 15.933z" data-original="#000000"/><path d="M47.119 101.003h-11.5a2 2 0 0 1 0-4h11.5a2 2 0 0 1 0 4zm-21.848 0h-11.5a2 2 0 0 1 0-4h11.5a2 2 0 0 1 0 4zm43.696 0h-11.5a2 2 0 0 1 0-4h11.5a2 2 0 0 1 0 4zm21.849 0h-11.5a2 2 0 0 1 0-4h11.5a2 2 0 0 1 0 4zM30.438 90.627H15.952c-2.757 0-5-2.243-5-5v-5.744c0-2.757 2.243-5 5-5h14.486c2.757 0 5 2.243 5 5v5.744c0 2.756-2.244 5-5 5zM15.952 78.882c-.551 0-1 .448-1 1v5.744c0 .552.449 1 1 1h14.486c.551 0 1-.448 1-1v-5.744c0-.552-.449-1-1-1z" data-original="#000000"/></g></symbol><symbol id="cash" viewBox="0 0 512 512"><path fill="#FFF" d="M85.072 454.931c-1.859-1.861-4.439-2.93-7.069-2.93s-5.21 1.069-7.07 2.93c-1.86 1.861-2.93 4.44-2.93 7.07s1.069 5.21 2.93 7.069c1.86 1.86 4.44 2.931 7.07 2.931s5.21-1.07 7.069-2.931c1.86-1.859 2.931-4.439 2.931-7.069s-1.07-5.21-2.931-7.07zm384.452-271.993a10.054 10.054 0 0 0-7.07-2.93c-2.63 0-5.21 1.069-7.07 2.93-1.859 1.86-2.93 4.44-2.93 7.07s1.07 5.21 2.93 7.069a10.077 10.077 0 0 0 7.07 2.931c2.64 0 5.21-1.07 7.07-2.931 1.869-1.859 2.939-4.439 2.939-7.069s-1.07-5.21-2.939-7.07z" data-original="#000000"/><path fill="#FFF" d="M509.065 2.929A10.006 10.006 0 0 0 501.992 0L255.998.013c-5.522 0-9.999 4.478-9.999 10V38.61L151.21 64.009c-5.335 1.43-8.501 6.913-7.071 12.247l49.127 183.342-42.499 42.499c-5.409-7.898-14.491-13.092-24.764-13.092H30.006c-16.542 0-29.999 13.458-29.999 29.999V482c0 16.542 13.457 30 29.999 30h95.998c14.053 0 25.875-9.716 29.115-22.78l11.89 10.369a50.382 50.382 0 0 0 33.118 12.412h301.867c5.522 0 10-4.478 10-10V10a10.01 10.01 0 0 0-2.929-7.071zM136.002 482.001c0 5.513-4.486 10-10 10H30.005c-5.514 0-10-4.486-10-10V319.005c0-5.514 4.486-10 10-10h37.999V424.2c0 5.522 4.478 10 10 10s10-4.478 10-10V309.005h37.999c5.514 0 10 4.486 10 10v162.996zm30.043-401.262l79.954-21.424V96.37l-6.702 1.796a9.997 9.997 0 0 0-7.071 12.247c3.843 14.341-4.698 29.134-19.039 32.977a9.998 9.998 0 0 0-7.066 12.267L245.1 299.995h-20.07l-10.343-40.464a9.985 9.985 0 0 0-1.676-3.507L166.045 80.739zm79.954 61.49v84.381l-18.239-67.535c7.619-3.934 13.854-9.82 18.239-16.846zM389.663 492H200.125a30.388 30.388 0 0 1-19.974-7.485l-24.149-21.061V325.147l43.658-43.658 7.918 30.98a10 10 0 0 0 9.688 7.523l196.604.012c7.72 0 14 6.28 14 14s-6.28 14-14 14H313.13c-5.522 0-10 4.478-10 10s4.478 10 10 10h132.04c7.72 0 14 6.28 14 14s-6.28 14-14 14H313.13c-5.522 0-10 4.478-10 10s4.478 10 10 10h110.643c7.72 0 14 6.28 14 14s-6.28 14-14 14H313.13c-5.522 0-10 4.478-10 10s4.478 10 10 10h76.533c7.72 0 14 6.28 14 14-.001 7.716-6.281 13.996-14 13.996zm102.331 0h-71.36c1.939-4.273 3.028-9.01 3.028-14s-1.089-9.727-3.028-14h3.139c18.747 0 33.999-15.252 33.999-33.999a33.778 33.778 0 0 0-3.609-15.217c14.396-3.954 25.005-17.149 25.005-32.782a33.816 33.816 0 0 0-6.711-20.255v-126.74c0-5.522-4.478-10-10-10s-10 4.478-10 10v113.792a34.008 34.008 0 0 0-7.289-.795h-.328a33.79 33.79 0 0 0 3.028-14c0-18.748-15.252-33.999-33.999-33.999h-16.075c17.069-7.32 29.057-24.286 29.057-44.005 0-26.389-21.468-47.858-47.857-47.858-26.388 0-47.857 21.469-47.857 47.858 0 19.719 11.989 36.685 29.057 44.005h-54.663V109.863c17.864-3.893 31.96-17.988 35.852-35.853h75.221c3.892 17.865 17.988 31.96 35.852 35.853v31.09c0 5.522 4.478 10 10 10s10-4.478 10-10v-40.018c0-5.522-4.478-10-10-10-14.847 0-26.924-12.079-26.924-26.925 0-5.522-4.478-10-10-10h-93.076c-5.522 0-10 4.478-10 10 0 14.847-12.078 26.925-26.924 26.925-5.522 0-10 4.478-10 10v199.069H266V20.011L491.994 20v472zM378.996 283.858c-15.361 0-27.857-12.497-27.857-27.857s12.497-27.858 27.857-27.858S406.853 240.64 406.853 256s-12.496 27.858-27.857 27.858z" data-original="#000000"/></symbol><symbol id="checkout" viewBox="0 0 512 512"><g fill="#FFF"><path d="M456.313 85.333h-55.527C386.809 36.16 341.594 0 288 0s-98.809 36.16-112.785 85.333h-69.441l-3.482-11.938c-5.271-18.094-22.115-30.729-40.958-30.729H32a10.66 10.66 0 0 0-10.667 10.667A10.66 10.66 0 0 0 32 64h29.333c9.427 0 17.844 6.313 20.479 15.365L148.208 307l-34.021 42.521a34.48 34.48 0 0 0-7.521 21.458c0 18.948 15.406 34.354 34.354 34.354h296.313c5.896 0 10.667-4.771 10.667-10.667S443.229 384 437.333 384H141.021c-7.177 0-13.021-5.844-13.021-13.021 0-2.948 1.01-5.844 2.854-8.135L165.133 320h209.221c16.448 0 31.604-9.615 38.615-24.5l74.438-158.177a34.636 34.636 0 0 0 3.26-14.615v-3.021c0-18.947-15.407-34.354-34.354-34.354zM288 21.333c52.938 0 96 43.063 96 96s-43.063 96-96 96-96-43.063-96-96 43.063-96 96-96zm181.333 101.375c0 1.906-.427 3.823-1.24 5.542l-74.427 158.167c-3.51 7.438-11.083 12.25-19.313 12.25H168l-56.004-192h59.211c-.319 3.518-.54 7.066-.54 10.667 0 64.698 52.635 117.333 117.333 117.333s117.333-52.635 117.333-117.333c0-3.6-.221-7.148-.54-10.667h51.52c7.177 0 13.021 5.844 13.021 13.021v3.02zm-320 303.959c-23.531 0-42.667 19.135-42.667 42.667S125.802 512 149.333 512 192 492.865 192 469.333s-19.135-42.666-42.667-42.666zm0 64c-11.76 0-21.333-9.573-21.333-21.333 0-11.76 9.573-21.333 21.333-21.333 11.76 0 21.333 9.573 21.333 21.333.001 11.76-9.572 21.333-21.333 21.333zm256-64c-23.531 0-42.667 19.135-42.667 42.667S381.802 512 405.333 512 448 492.865 448 469.333s-19.135-42.666-42.667-42.666zm0 64c-11.76 0-21.333-9.573-21.333-21.333 0-11.76 9.573-21.333 21.333-21.333 11.76 0 21.333 9.573 21.333 21.333.001 11.76-9.572 21.333-21.333 21.333z" data-original="#000000"/><path d="M259.125 167.542a10.634 10.634 0 0 0 7.542 3.125c2.729 0 5.458-1.042 7.542-3.125l74.667-74.667c4.167-4.167 4.167-10.917 0-15.083-4.167-4.167-10.917-4.167-15.083 0l-67.125 67.125-24.458-24.458c-4.167-4.167-10.917-4.167-15.083 0-4.167 4.167-4.167 10.917 0 15.083l31.998 32z" data-original="#000000"/></g></symbol><symbol id="remove" viewBox="0 0 512 512"><path fill="#FFF" d="M436 60h-75V45c0-24.813-20.187-45-45-45H196c-24.813 0-45 20.187-45 45v15H76c-24.813 0-45 20.187-45 45 0 19.928 13.025 36.861 31.005 42.761L88.76 470.736C90.687 493.875 110.385 512 133.604 512h244.792c23.22 0 42.918-18.125 44.846-41.271l26.753-322.969C467.975 141.861 481 124.928 481 105c0-24.813-20.187-45-45-45zM181 45c0-8.271 6.729-15 15-15h120c8.271 0 15 6.729 15 15v15H181V45zm212.344 423.246c-.643 7.712-7.208 13.754-14.948 13.754H133.604c-7.739 0-14.305-6.042-14.946-13.747L92.294 150h327.412l-26.362 318.246zM436 120H76c-8.271 0-15-6.729-15-15s6.729-15 15-15h360c8.271 0 15 6.729 15 15s-6.729 15-15 15z" data-original="#000000"/><path fill="#FFF" d="M195.971 436.071l-15-242c-.513-8.269-7.67-14.558-15.899-14.043-8.269.513-14.556 7.631-14.044 15.899l15 242.001c.493 7.953 7.097 14.072 14.957 14.072 8.687 0 15.519-7.316 14.986-15.929zM256 180c-8.284 0-15 6.716-15 15v242c0 8.284 6.716 15 15 15s15-6.716 15-15V195c0-8.284-6.716-15-15-15zm90.927.029c-8.25-.513-15.387 5.774-15.899 14.043l-15 242c-.511 8.268 5.776 15.386 14.044 15.899 8.273.512 15.387-5.778 15.899-14.043l15-242c.512-8.269-5.775-15.387-14.044-15.899z" data-original="#000000"/></symbol><symbol id="filter" viewBox="0 0 48 48"><path fill="#FFF" d="M18.5 26.88V44c0 .52.27 1 .71 1.27a1.483 1.483 0 0 0 1.46.07l8-4c.51-.26.83-.77.83-1.34V26.88L45.22 4.87c.33-.46.37-1.06.11-1.56S44.56 2.5 44 2.5H4c-.56 0-1.07.31-1.33.81s-.21 1.1.11 1.56zM41.08 5.5l-14.3 20.03c-.18.26-.28.56-.28.87v12.67l-5 2.5V26.4c0-.32-.1-.62-.28-.87L6.92 5.5z" data-original="#000000"/></symbol><symbol id="favorit" viewBox="0 0 471.7 471.7"><path  d="M433.601 67.001c-24.7-24.7-57.4-38.2-92.3-38.2s-67.7 13.6-92.4 38.3l-12.9 12.9-13.1-13.1c-24.7-24.7-57.6-38.4-92.5-38.4-34.8 0-67.6 13.6-92.2 38.2-24.7 24.7-38.3 57.5-38.2 92.4 0 34.9 13.7 67.6 38.4 92.3l187.8 187.8c2.6 2.6 6.1 4 9.5 4 3.4 0 6.9-1.3 9.5-3.9l188.2-187.5c24.7-24.7 38.3-57.5 38.3-92.4.1-34.9-13.4-67.7-38.1-92.4zm-19.2 165.7l-178.7 178-178.3-178.3c-19.6-19.6-30.4-45.6-30.4-73.3s10.7-53.7 30.3-73.2c19.5-19.5 45.5-30.3 73.1-30.3 27.7 0 53.8 10.8 73.4 30.4l22.6 22.6c5.3 5.3 13.8 5.3 19.1 0l22.4-22.4c19.6-19.6 45.7-30.4 73.3-30.4 27.6 0 53.6 10.8 73.2 30.3 19.6 19.6 30.3 45.6 30.3 73.3.1 27.7-10.7 53.7-30.3 73.3z" data-original="#000000"/></symbol><symbol id="remove" viewBox="0 0 64 64"><path fill="#FFF" d="M4.59 59.41a2 2 0 0 0 2.83 0L32 34.83l24.59 24.58a2 2 0 0 0 2.83-2.83L34.83 32 59.41 7.41a2 2 0 0 0-2.83-2.83L32 29.17 7.41 4.59a2 2 0 0 0-2.82 2.82L29.17 32 4.59 56.59a2 2 0 0 0 0 2.82z" data-original="#000000"/></symbol><symbol id="insta" viewBox="0 0 24 24"><defs><linearGradient id="a" x1="-37.11" x2="-26.55" y1="-72.7" y2="-84.05" gradientTransform="matrix(0 -1.982 -1.844 0 -132.522 -51.077)" gradientUnits="userSpaceOnUse"><stop offset="0" stop-color="#fd5"/><stop offset=".5" stop-color="#ff543e"/><stop offset="1" stop-color="#c837ab"/></linearGradient></defs><path fill="url(&quot;#a&quot;)" d="M1.5 1.633C-.386 3.592 0 5.673 0 11.995c0 5.25-.916 10.513 3.878 11.752 1.497.385 14.761.385 16.256-.002 1.996-.515 3.62-2.134 3.842-4.957.031-.394.031-13.185-.001-13.587-.236-3.007-2.087-4.74-4.526-5.091C18.89.029 18.778.005 15.91 0 5.737.005 3.507-.448 1.5 1.633z" data-original="url(#a)"/><path fill="#FFF" d="M11.998 3.139c-3.631 0-7.079-.323-8.396 3.057-.544 1.396-.465 3.209-.465 5.805 0 2.278-.073 4.419.465 5.804 1.314 3.382 4.79 3.058 8.394 3.058 3.477 0 7.062.362 8.395-3.058.545-1.41.465-3.196.465-5.804 0-3.462.191-5.697-1.488-7.375-1.7-1.7-3.999-1.487-7.374-1.487zm-.794 1.597c7.574-.012 8.538-.854 8.006 10.843-.189 4.137-3.339 3.683-7.211 3.683-7.06 0-7.263-.202-7.263-7.265 0-7.145.56-7.257 6.468-7.263zm5.524 1.471a1.063 1.063 0 1 0 0 2.126 1.063 1.063 0 0 0 0-2.126zm-4.73 1.243a4.55 4.55 0 1 0 .001 9.101 4.55 4.55 0 0 0-.001-9.101zm0 1.597c3.905 0 3.91 5.908 0 5.908-3.904 0-3.91-5.908 0-5.908z" data-original="#ffffff"/></symbol><symbol id="cashe" viewBox="0 0 512 512"><path fill="#5CC45C" d="M510.291 177.129L275.026 412.394a5.836 5.836 0 0 1-8.253 0L135.06 280.681a5.836 5.836 0 0 1 0-8.253L370.324 37.163a5.836 5.836 0 0 1 8.253 0L510.29 168.876a5.835 5.835 0 0 1 .001 8.253z" data-original="#5cc45c"/><path fill="#4EAD4E" d="M510.291 168.876l-35.48-35.48-243.518 243.518 35.48 35.48a5.836 5.836 0 0 0 8.253 0l235.265-235.265a5.836 5.836 0 0 0 0-8.253z" data-original="#4ead4e"/><path fill="#A0E557" d="M185.617 291.83c5.133-9.497 5.133-21.053 0-30.551-.689-1.275-.49-2.844.535-3.869L355.307 88.255c1.025-1.025 2.594-1.224 3.869-.534 9.495 5.133 21.052 5.133 30.551-.001 1.275-.689 2.844-.49 3.869.534l65.603 65.603c1.025 1.025 1.224 2.594.534 3.869-5.134 9.498-5.134 21.053 0 30.551.689 1.275.49 2.844-.534 3.869L290.043 361.302c-1.025 1.025-2.594 1.224-3.869.535-9.498-5.133-21.054-5.133-30.55 0-1.275.689-2.844.49-3.869-.535l-65.603-65.603c-1.025-1.025-1.224-2.595-.535-3.869z" data-original="#a0e557"/><path fill="#93CC4A" d="M459.733 188.277c-5.134-9.498-5.134-21.053 0-30.551.689-1.275.49-2.844-.534-3.869l-37.774-37.774c-6.786 10.539-6.786 24.204 0 34.743L248.722 323.528c-10.539-6.785-24.205-6.784-34.742 0l37.774 37.774c1.025 1.025 2.594 1.223 3.869.534 9.496-5.132 21.052-5.133 30.55.001 1.275.689 2.844.49 3.869-.535l169.156-169.156c1.025-1.024 1.224-2.594.535-3.869z" data-original="#93cc4a"/><circle cx="322.68" cy="224.78" r="47.98" fill="#F3E8D7" data-original="#f3e8d7" transform="rotate(-45.001 322.678 224.78)"/><path fill="#FCD7C3" d="M265.779 338.712l72.389-72.389c8.342-8.342 11.889-18.32 3.547-26.662-13.148-16.327-61.143-3.234-83.91 19.533a145816.5 145816.5 0 0 0-30.483 30.49c-3.381 3.382-7.963 5.282-12.804 5.282h-.249c-7.987 0-17.342-7.734-19.402-15.451l-.005-66.89 11.945-11.945 13.124-13.124 52.124-52.124c-21.444-2.403-42.768-3.703-51.04-4.694-9.196-1.102-17.04 3.019-24.177 8.923l-66.729 52.644a59.604 59.604 0 0 0-19.458 30.071c-7.285 26.388-22.63 73.065-32.369 91.627L29.63 362.655l84.23 84.23 23.426-23.426a36.925 36.925 0 0 1 15.827-9.355l48.925-16.474a84.76 84.76 0 0 0 38.978-27.599l24.763-31.319z" data-original="#fcd7c3"/><path fill="#FFCDAC" d="M241.016 370.031l24.763-31.318 72.389-72.389c8.342-8.342 11.889-18.32 3.547-26.662-4.833-6.002-14.375-8.027-25.642-7.058-16.502 1.419-31.88 8.963-43.592 20.675l-46.068 46.068-24.763 31.318a84.75 84.75 0 0 1-38.978 27.599l-48.925 16.474a36.929 36.929 0 0 0-15.828 9.355l-23.426 23.426 39.366 39.366 23.426-23.426a36.925 36.925 0 0 1 15.827-9.355l48.925-16.474a84.762 84.762 0 0 0 38.979-27.599z" data-original="#ffcdac"/><path fill="#464C50" d="M100.198 473.837L2.71 376.348a9.25 9.25 0 0 1 0-13.083l17.156-17.156a9.25 9.25 0 0 1 13.083 0l97.489 97.489a9.25 9.25 0 0 1 0 13.083l-17.156 17.155a9.251 9.251 0 0 1-13.084.001z" data-original="#464c50"/><path fill="#33393A" d="M130.437 443.598l-33.065-33.065-30.239 30.239 33.065 33.065a9.25 9.25 0 0 0 13.083 0l17.155-17.155a9.251 9.251 0 0 0 .001-13.084z" data-original="#33393a"/><path fill="#EFEFEF" d="M335.307 264.069c-9.607-9.607-25.184-9.607-34.791 0l-10.93 10.93c-4.946 4.946-4.946 12.964 0 17.91l10.998 10.998 37.28-37.28-2.557-2.558z" data-original="#efefef"/></symbol><symbol id="visa" viewBox="0 0 504 504"><path fill="#3C58BF" d="M184.8 324.4l25.6-144h40l-24.8 144z" data-original="#3c58bf"/><path fill="#293688" d="M184.8 324.4l32.8-144h32.8l-24.8 144z" data-original="#293688"/><path fill="#3C58BF" d="M370.4 182c-8-3.2-20.8-6.4-36.8-6.4-40 0-68.8 20-68.8 48.8 0 21.6 20 32.8 36 40s20.8 12 20.8 18.4c0 9.6-12.8 14.4-24 14.4-16 0-24.8-2.4-38.4-8l-5.6-2.4-5.6 32.8c9.6 4 27.2 8 45.6 8 42.4 0 70.4-20 70.4-50.4 0-16.8-10.4-29.6-34.4-40-14.4-7.2-23.2-11.2-23.2-18.4 0-6.4 7.2-12.8 23.2-12.8 13.6 0 23.2 2.4 30.4 5.6l4 1.6 6.4-31.2z" data-original="#3c58bf"/><path fill="#293688" d="M370.4 182c-8-3.2-20.8-6.4-36.8-6.4-40 0-61.6 20-61.6 48.8 0 21.6 12.8 32.8 28.8 40s20.8 12 20.8 18.4c0 9.6-12.8 14.4-24 14.4-16 0-24.8-2.4-38.4-8l-5.6-2.4-5.6 32.8c9.6 4 27.2 8 45.6 8 42.4 0 70.4-20 70.4-50.4 0-16.8-10.4-29.6-34.4-40-14.4-7.2-23.2-11.2-23.2-18.4 0-6.4 7.2-12.8 23.2-12.8 13.6 0 23.2 2.4 30.4 5.6l4 1.6 6.4-31.2z" data-original="#293688"/><path fill="#3C58BF" d="M439.2 180.4c-9.6 0-16.8.8-20.8 10.4l-60 133.6h43.2l8-24h51.2l4.8 24H504l-33.6-144h-31.2zm-18.4 96c2.4-7.2 16-42.4 16-42.4s3.2-8.8 5.6-14.4l2.4 13.6s8 36 9.6 44h-33.6v-.8z" data-original="#3c58bf"/><path fill="#293688" d="M448.8 180.4c-9.6 0-16.8.8-20.8 10.4l-69.6 133.6h43.2l8-24h51.2l4.8 24H504l-33.6-144h-21.6zm-28 96c3.2-8 16-42.4 16-42.4s3.2-8.8 5.6-14.4l2.4 13.6s8 36 9.6 44h-33.6v-.8z" data-original="#293688"/><path fill="#3C58BF" d="M111.2 281.2l-4-20.8c-7.2-24-30.4-50.4-56-63.2l36 128h43.2l64.8-144H152l-40.8 100z" data-original="#3c58bf"/><path fill="#293688" d="M111.2 281.2l-4-20.8c-7.2-24-30.4-50.4-56-63.2l36 128h43.2l64.8-144H160l-48.8 100z" data-original="#293688"/><path fill="#FFBC00" d="M0 180.4l7.2 1.6c51.2 12 86.4 42.4 100 78.4l-14.4-68c-2.4-9.6-9.6-12-18.4-12H0z" data-original="#ffbc00"/><path fill="#F7981D" d="M0 180.4c51.2 12 93.6 43.2 107.2 79.2l-13.6-56.8c-2.4-9.6-10.4-15.2-19.2-15.2L0 180.4z" data-original="#f7981d"/><path fill="#ED7C00" d="M0 180.4c51.2 12 93.6 43.2 107.2 79.2l-9.6-31.2c-2.4-9.6-5.6-19.2-16.8-23.2L0 180.4z" data-original="#ed7c00"/><path fill="#051244" d="M151.2 276.4L124 249.2l-12.8 30.4-3.2-20c-7.2-24-30.4-50.4-56-63.2l36 128h43.2l20-48zm74.4 48l-34.4-35.2-6.4 35.2zm92-49.6c3.2 3.2 4.8 5.6 4 8.8 0 9.6-12.8 14.4-24 14.4-16 0-24.8-2.4-38.4-8l-5.6-2.4-5.6 32.8c9.6 4 27.2 8 45.6 8 25.6 0 46.4-7.2 58.4-20l-34.4-33.6zm46.4 49.6h37.6l8-24h51.2l4.8 24H504L490.4 266l-48-46.4 2.4 12.8s8 36 9.6 44h-33.6c3.2-8 16-42.4 16-42.4s3.2-8.8 5.6-14.4" data-original="#051244"/></symbol><symbol id="twitter" viewBox="0 0 152 152"><circle cx="76" cy="76" r="76" fill="#03A9F4" data-original="#03a9f4"/><path fill="#FFF" d="M125.23 45.47a42 42 0 0 1-11.63 3.19 20.06 20.06 0 0 0 8.88-11.16 40.32 40.32 0 0 1-12.8 4.89 20.18 20.18 0 0 0-34.92 13.8 20.87 20.87 0 0 0 .47 4.6 57.16 57.16 0 0 1-41.61-21.11 20.2 20.2 0 0 0 6.21 27 19.92 19.92 0 0 1-9.12-2.49v.22a20.28 20.28 0 0 0 16.17 19.82 20.13 20.13 0 0 1-5.29.66 18 18 0 0 1-3.83-.34 20.39 20.39 0 0 0 18.87 14.06 40.59 40.59 0 0 1-25 8.61 36.45 36.45 0 0 1-4.83-.28 56.79 56.79 0 0 0 31 9.06c37.15 0 57.46-30.77 57.46-57.44 0-.89 0-1.75-.07-2.61a40.16 40.16 0 0 0 10.04-10.48z" data-original="#ffffff"/></symbol><symbol id="facebook" viewBox="0 0 112.2 112.2"><circle cx="56.1" cy="56.1" r="56.1" fill="#3B5998" data-original="#3b5998"/><path fill="#FFF" d="M70.201 58.294h-10.01v36.672H45.025V58.294h-7.213V45.406h7.213v-8.34c0-5.964 2.833-15.303 15.301-15.303l11.234.047v12.51h-8.151c-1.337 0-3.217.668-3.217 3.513v7.585h11.334l-1.325 12.876z" data-original="#ffffff"/></symbol><symbol id="added-favorit" viewBox="0 0 64 64"><path fill="#FFF" d="M56.698 35.164L32.7 58.693a1 1 0 0 1-1.4 0L7.302 35.164a17.667 17.667 0 0 1-4.078-19.03 17.478 17.478 0 0 1 13.683-10.98C22.597 4.387 27.91 6.682 32 11.626c4.094-4.952 9.406-7.246 15.073-6.487a17.639 17.639 0 0 1 9.625 30.025z" data-original="#000000"/></symbol><symbol id="added-cart" viewBox="0 0 437.81 437.81"><circle cx="152.03" cy="390.79" r="47.02" fill="#FFF" data-original="#000000"/><circle cx="350.56" cy="390.79" r="47.02" fill="#FFF" data-original="#000000"/><path fill="#FFF" d="M114.939 82.024l-16.196-49.11C92.296 13.499 74.267.292 53.812 0H18.808C13.037 0 8.359 4.678 8.359 10.449s4.678 10.449 10.449 10.449h35.004A27.17 27.17 0 0 1 78.89 39.184l65.829 200.098-4.702 12.016a51.722 51.722 0 0 0 4.18 45.453 48.588 48.588 0 0 0 39.184 21.943h203.755c5.771 0 10.449-4.678 10.449-10.449s-4.678-10.449-10.449-10.449H183.38a26.12 26.12 0 0 1-21.42-12.539 27.167 27.167 0 0 1-2.612-25.078l6.269-15.674a13.58 13.58 0 0 0 .522-7.837l-3.135-7.837 212.637-21.943a36.048 36.048 0 0 0 31.869-27.69l21.943-92.473-314.514-4.701z" data-original="#000000"/></symbol><symbol id="profile" viewBox="0 0 48 48"><path d="M24 1c-6.071 0-11 4.929-11 11s4.929 11 11 11 11-4.929 11-11S30.071 1 24 1zm0 2c4.967 0 9 4.033 9 9s-4.033 9-9 9-9-4.033-9-9 4.033-9 9-9zm19 31a9 9 0 0 0-9-9H14a9 9 0 0 0-9 9v10a3 3 0 0 0 3 3h32a3 3 0 0 0 3-3zm-2 0v10a1 1 0 0 1-1 1H8a1 1 0 0 1-1-1V34a7.003 7.003 0 0 1 7-7h20a6.999 6.999 0 0 1 7 7z" data-original="#000000"/></symbol><symbol id="profile" viewBox="0 0 48 48"><path d="M24 1c-6.071 0-11 4.929-11 11s4.929 11 11 11 11-4.929 11-11S30.071 1 24 1zm0 2c4.967 0 9 4.033 9 9s-4.033 9-9 9-9-4.033-9-9 4.033-9 9-9zm19 31a9 9 0 0 0-9-9H14a9 9 0 0 0-9 9v10a3 3 0 0 0 3 3h32a3 3 0 0 0 3-3zm-2 0v10a1 1 0 0 1-1 1H8a1 1 0 0 1-1-1V34a7.003 7.003 0 0 1 7-7h20a6.999 6.999 0 0 1 7 7z" data-original="#000000"/></symbol><symbol id="cart" viewBox="0 0 450.39 450.39"><path d="M143.673 350.322c-25.969 0-47.02 21.052-47.02 47.02 0 25.969 21.052 47.02 47.02 47.02 25.969 0 47.02-21.052 47.02-47.02.001-25.968-21.051-47.02-47.02-47.02zm0 73.143c-14.427 0-26.122-11.695-26.122-26.122s11.695-26.122 26.122-26.122 26.122 11.695 26.122 26.122c.001 14.427-11.695 26.122-26.122 26.122zm198.531-73.143c-25.969 0-47.02 21.052-47.02 47.02 0 25.969 21.052 47.02 47.02 47.02s47.02-21.052 47.02-47.02c0-25.968-21.051-47.02-47.02-47.02zm0 73.143c-14.427 0-26.122-11.695-26.122-26.122s11.695-26.122 26.122-26.122 26.122 11.695 26.122 26.122c.001 14.427-11.695 26.122-26.122 26.122zM448.261 76.037a13.064 13.064 0 0 0-8.359-4.18L99.788 67.155 90.384 38.42C83.759 19.211 65.771 6.243 45.453 6.028H10.449C4.678 6.028 0 10.706 0 16.477s4.678 10.449 10.449 10.449h35.004a27.17 27.17 0 0 1 25.078 18.286l66.351 200.098-5.224 12.016a50.154 50.154 0 0 0 4.702 45.453 48.588 48.588 0 0 0 39.184 21.943h203.233c5.771 0 10.449-4.678 10.449-10.449s-4.678-10.449-10.449-10.449H175.543a26.646 26.646 0 0 1-21.943-12.539 28.733 28.733 0 0 1-2.612-25.078l4.18-9.404 219.951-22.988c24.16-2.661 44.034-20.233 49.633-43.886L449.83 84.917a8.882 8.882 0 0 0-1.569-8.88zm-43.885 109.191c-3.392 15.226-16.319 26.457-31.869 27.69l-217.339 22.465-48.588-147.33 320.261 4.702-22.465 92.473z" data-original="#000000"/></symbol><symbol id="profile" viewBox="0 0 48 48"><path d="M24 1c-6.071 0-11 4.929-11 11s4.929 11 11 11 11-4.929 11-11S30.071 1 24 1zm0 2c4.967 0 9 4.033 9 9s-4.033 9-9 9-9-4.033-9-9 4.033-9 9-9zm19 31a9 9 0 0 0-9-9H14a9 9 0 0 0-9 9v10a3 3 0 0 0 3 3h32a3 3 0 0 0 3-3zm-2 0v10a1 1 0 0 1-1 1H8a1 1 0 0 1-1-1V34a7.003 7.003 0 0 1 7-7h20a6.999 6.999 0 0 1 7 7z" data-original="#000000"/></symbol><symbol id="logout" viewBox="0 0 471.2 471.2"><path d="M227.619 444.2h-122.9c-33.4 0-60.5-27.2-60.5-60.5V87.5c0-33.4 27.2-60.5 60.5-60.5h124.9c7.5 0 13.5-6 13.5-13.5s-6-13.5-13.5-13.5h-124.9c-48.3 0-87.5 39.3-87.5 87.5v296.2c0 48.3 39.3 87.5 87.5 87.5h122.9c7.5 0 13.5-6 13.5-13.5s-6.1-13.5-13.5-13.5z" data-original="#000000"/><path d="M450.019 226.1l-85.8-85.8c-5.3-5.3-13.8-5.3-19.1 0-5.3 5.3-5.3 13.8 0 19.1l62.8 62.8h-273.9c-7.5 0-13.5 6-13.5 13.5s6 13.5 13.5 13.5h273.9l-62.8 62.8c-5.3 5.3-5.3 13.8 0 19.1 2.6 2.6 6.1 4 9.5 4s6.9-1.3 9.5-4l85.8-85.8c5.4-5.4 5.4-14 .1-19.2z" data-original="#000000"/></symbol><symbol id="cart" viewBox="0 0 450.39 450.39"><path d="M143.673 350.322c-25.969 0-47.02 21.052-47.02 47.02 0 25.969 21.052 47.02 47.02 47.02 25.969 0 47.02-21.052 47.02-47.02.001-25.968-21.051-47.02-47.02-47.02zm0 73.143c-14.427 0-26.122-11.695-26.122-26.122s11.695-26.122 26.122-26.122 26.122 11.695 26.122 26.122c.001 14.427-11.695 26.122-26.122 26.122zm198.531-73.143c-25.969 0-47.02 21.052-47.02 47.02 0 25.969 21.052 47.02 47.02 47.02s47.02-21.052 47.02-47.02c0-25.968-21.051-47.02-47.02-47.02zm0 73.143c-14.427 0-26.122-11.695-26.122-26.122s11.695-26.122 26.122-26.122 26.122 11.695 26.122 26.122c.001 14.427-11.695 26.122-26.122 26.122zM448.261 76.037a13.064 13.064 0 0 0-8.359-4.18L99.788 67.155 90.384 38.42C83.759 19.211 65.771 6.243 45.453 6.028H10.449C4.678 6.028 0 10.706 0 16.477s4.678 10.449 10.449 10.449h35.004a27.17 27.17 0 0 1 25.078 18.286l66.351 200.098-5.224 12.016a50.154 50.154 0 0 0 4.702 45.453 48.588 48.588 0 0 0 39.184 21.943h203.233c5.771 0 10.449-4.678 10.449-10.449s-4.678-10.449-10.449-10.449H175.543a26.646 26.646 0 0 1-21.943-12.539 28.733 28.733 0 0 1-2.612-25.078l4.18-9.404 219.951-22.988c24.16-2.661 44.034-20.233 49.633-43.886L449.83 84.917a8.882 8.882 0 0 0-1.569-8.88zm-43.885 109.191c-3.392 15.226-16.319 26.457-31.869 27.69l-217.339 22.465-48.588-147.33 320.261 4.702-22.465 92.473z" data-original="#000000"/></symbol><symbol id="settings" viewBox="0 0 24 24"><path d="M13.12 24h-2.24a1.498 1.498 0 0 1-1.486-1.32l-.239-1.876a9.45 9.45 0 0 1-1.374-.569l-1.494 1.161a1.492 1.492 0 0 1-1.985-.126l-1.575-1.575a1.488 1.488 0 0 1-.122-1.979l1.161-1.495a9.232 9.232 0 0 1-.569-1.374l-1.88-.239A1.501 1.501 0 0 1 0 13.12v-2.24c0-.757.567-1.396 1.32-1.486l1.876-.239a9.45 9.45 0 0 1 .569-1.374l-1.16-1.494a1.49 1.49 0 0 1 .127-1.986l1.575-1.575a1.489 1.489 0 0 1 1.979-.122L7.78 3.766a9.416 9.416 0 0 1 1.375-.569l.239-1.88C9.484.567 10.123 0 10.88 0h2.24c.757 0 1.396.567 1.486 1.32l.239 1.876c.478.155.938.346 1.375.569l1.494-1.161a1.49 1.49 0 0 1 1.985.127l1.575 1.575c.537.521.591 1.374.122 1.979L20.235 7.78c.224.437.415.897.569 1.374l1.88.239A1.5 1.5 0 0 1 24 10.88v2.24c0 .757-.567 1.396-1.32 1.486l-1.876.239a9.45 9.45 0 0 1-.569 1.374l1.161 1.494a1.49 1.49 0 0 1-.127 1.985l-1.575 1.575a1.487 1.487 0 0 1-1.979.122l-1.495-1.161a9.232 9.232 0 0 1-1.374.569l-.239 1.88A1.5 1.5 0 0 1 13.12 24zm-5.39-4.86c.083 0 .168.021.244.063a8.393 8.393 0 0 0 1.774.736.5.5 0 0 1 .358.417l.28 2.2c.03.251.247.444.494.444h2.24a.504.504 0 0 0 .493-.439l.281-2.204a.5.5 0 0 1 .358-.417 8.393 8.393 0 0 0 1.774-.736.499.499 0 0 1 .55.042l1.75 1.36a.492.492 0 0 0 .655-.034l1.585-1.585a.495.495 0 0 0 .039-.66l-1.36-1.75a.5.5 0 0 1-.042-.55 8.393 8.393 0 0 0 .736-1.774.5.5 0 0 1 .417-.358l2.2-.28A.507.507 0 0 0 23 13.12v-2.24a.504.504 0 0 0-.439-.493l-2.204-.281a.5.5 0 0 1-.417-.358 8.393 8.393 0 0 0-.736-1.774.497.497 0 0 1 .042-.55l1.36-1.75a.49.49 0 0 0-.033-.654l-1.585-1.585a.492.492 0 0 0-.66-.039l-1.75 1.36a.5.5 0 0 1-.551.042 8.359 8.359 0 0 0-1.774-.736.5.5 0 0 1-.358-.417l-.28-2.2A.507.507 0 0 0 13.12 1h-2.24a.504.504 0 0 0-.493.439l-.281 2.204a.502.502 0 0 1-.358.418 8.356 8.356 0 0 0-1.774.735.5.5 0 0 1-.551-.041l-1.75-1.36a.49.49 0 0 0-.654.033L3.434 5.014a.495.495 0 0 0-.039.66l1.36 1.75a.5.5 0 0 1 .042.55 8.341 8.341 0 0 0-.736 1.774.5.5 0 0 1-.417.358l-2.2.28A.505.505 0 0 0 1 10.88v2.24c0 .247.193.464.439.493l2.204.281a.5.5 0 0 1 .417.358c.18.626.428 1.223.736 1.774a.497.497 0 0 1-.042.55l-1.36 1.75a.49.49 0 0 0 .033.654l1.585 1.585a.494.494 0 0 0 .66.039l1.75-1.36a.515.515 0 0 1 .308-.104z" data-original="#000000"/><path d="M12 17c-2.757 0-5-2.243-5-5s2.243-5 5-5 5 2.243 5 5-2.243 5-5 5zm0-9c-2.206 0-4 1.794-4 4s1.794 4 4 4 4-1.794 4-4-1.794-4-4-4z" data-original="#000000"/></symbol></svg>