<svg xmlns="http://www.w3.org/2000/svg"><symbol id="profile" viewBox="0 0 48 48"><path d="M24 1c-6.071 0-11 4.929-11 11s4.929 11 11 11 11-4.929 11-11S30.071 1 24 1zm0 2c4.967 0 9 4.033 9 9s-4.033 9-9 9-9-4.033-9-9 4.033-9 9-9zm19 31a9 9 0 0 0-9-9H14a9 9 0 0 0-9 9v10a3 3 0 0 0 3 3h32a3 3 0 0 0 3-3zm-2 0v10a1 1 0 0 1-1 1H8a1 1 0 0 1-1-1V34a7.003 7.003 0 0 1 7-7h20a6.999 6.999 0 0 1 7 7z" data-original="#000000"/></symbol><symbol id="profile" viewBox="0 0 48 48"><path d="M24 1c-6.071 0-11 4.929-11 11s4.929 11 11 11 11-4.929 11-11S30.071 1 24 1zm0 2c4.967 0 9 4.033 9 9s-4.033 9-9 9-9-4.033-9-9 4.033-9 9-9zm19 31a9 9 0 0 0-9-9H14a9 9 0 0 0-9 9v10a3 3 0 0 0 3 3h32a3 3 0 0 0 3-3zm-2 0v10a1 1 0 0 1-1 1H8a1 1 0 0 1-1-1V34a7.003 7.003 0 0 1 7-7h20a6.999 6.999 0 0 1 7 7z" data-original="#000000"/></symbol><symbol id="cart" viewBox="0 0 450.39 450.39"><path d="M143.673 350.322c-25.969 0-47.02 21.052-47.02 47.02 0 25.969 21.052 47.02 47.02 47.02 25.969 0 47.02-21.052 47.02-47.02.001-25.968-21.051-47.02-47.02-47.02zm0 73.143c-14.427 0-26.122-11.695-26.122-26.122s11.695-26.122 26.122-26.122 26.122 11.695 26.122 26.122c.001 14.427-11.695 26.122-26.122 26.122zm198.531-73.143c-25.969 0-47.02 21.052-47.02 47.02 0 25.969 21.052 47.02 47.02 47.02s47.02-21.052 47.02-47.02c0-25.968-21.051-47.02-47.02-47.02zm0 73.143c-14.427 0-26.122-11.695-26.122-26.122s11.695-26.122 26.122-26.122 26.122 11.695 26.122 26.122c.001 14.427-11.695 26.122-26.122 26.122zM448.261 76.037a13.064 13.064 0 0 0-8.359-4.18L99.788 67.155 90.384 38.42C83.759 19.211 65.771 6.243 45.453 6.028H10.449C4.678 6.028 0 10.706 0 16.477s4.678 10.449 10.449 10.449h35.004a27.17 27.17 0 0 1 25.078 18.286l66.351 200.098-5.224 12.016a50.154 50.154 0 0 0 4.702 45.453 48.588 48.588 0 0 0 39.184 21.943h203.233c5.771 0 10.449-4.678 10.449-10.449s-4.678-10.449-10.449-10.449H175.543a26.646 26.646 0 0 1-21.943-12.539 28.733 28.733 0 0 1-2.612-25.078l4.18-9.404 219.951-22.988c24.16-2.661 44.034-20.233 49.633-43.886L449.83 84.917a8.882 8.882 0 0 0-1.569-8.88zm-43.885 109.191c-3.392 15.226-16.319 26.457-31.869 27.69l-217.339 22.465-48.588-147.33 320.261 4.702-22.465 92.473z" data-original="#000000"/></symbol><symbol id="profile" viewBox="0 0 48 48"><path d="M24 1c-6.071 0-11 4.929-11 11s4.929 11 11 11 11-4.929 11-11S30.071 1 24 1zm0 2c4.967 0 9 4.033 9 9s-4.033 9-9 9-9-4.033-9-9 4.033-9 9-9zm19 31a9 9 0 0 0-9-9H14a9 9 0 0 0-9 9v10a3 3 0 0 0 3 3h32a3 3 0 0 0 3-3zm-2 0v10a1 1 0 0 1-1 1H8a1 1 0 0 1-1-1V34a7.003 7.003 0 0 1 7-7h20a6.999 6.999 0 0 1 7 7z" data-original="#000000"/></symbol><symbol id="logout" viewBox="0 0 471.2 471.2"><path d="M227.619 444.2h-122.9c-33.4 0-60.5-27.2-60.5-60.5V87.5c0-33.4 27.2-60.5 60.5-60.5h124.9c7.5 0 13.5-6 13.5-13.5s-6-13.5-13.5-13.5h-124.9c-48.3 0-87.5 39.3-87.5 87.5v296.2c0 48.3 39.3 87.5 87.5 87.5h122.9c7.5 0 13.5-6 13.5-13.5s-6.1-13.5-13.5-13.5z" data-original="#000000"/><path d="M450.019 226.1l-85.8-85.8c-5.3-5.3-13.8-5.3-19.1 0-5.3 5.3-5.3 13.8 0 19.1l62.8 62.8h-273.9c-7.5 0-13.5 6-13.5 13.5s6 13.5 13.5 13.5h273.9l-62.8 62.8c-5.3 5.3-5.3 13.8 0 19.1 2.6 2.6 6.1 4 9.5 4s6.9-1.3 9.5-4l85.8-85.8c5.4-5.4 5.4-14 .1-19.2z" data-original="#000000"/></symbol><symbol id="cart" viewBox="0 0 450.39 450.39"><path d="M143.673 350.322c-25.969 0-47.02 21.052-47.02 47.02 0 25.969 21.052 47.02 47.02 47.02 25.969 0 47.02-21.052 47.02-47.02.001-25.968-21.051-47.02-47.02-47.02zm0 73.143c-14.427 0-26.122-11.695-26.122-26.122s11.695-26.122 26.122-26.122 26.122 11.695 26.122 26.122c.001 14.427-11.695 26.122-26.122 26.122zm198.531-73.143c-25.969 0-47.02 21.052-47.02 47.02 0 25.969 21.052 47.02 47.02 47.02s47.02-21.052 47.02-47.02c0-25.968-21.051-47.02-47.02-47.02zm0 73.143c-14.427 0-26.122-11.695-26.122-26.122s11.695-26.122 26.122-26.122 26.122 11.695 26.122 26.122c.001 14.427-11.695 26.122-26.122 26.122zM448.261 76.037a13.064 13.064 0 0 0-8.359-4.18L99.788 67.155 90.384 38.42C83.759 19.211 65.771 6.243 45.453 6.028H10.449C4.678 6.028 0 10.706 0 16.477s4.678 10.449 10.449 10.449h35.004a27.17 27.17 0 0 1 25.078 18.286l66.351 200.098-5.224 12.016a50.154 50.154 0 0 0 4.702 45.453 48.588 48.588 0 0 0 39.184 21.943h203.233c5.771 0 10.449-4.678 10.449-10.449s-4.678-10.449-10.449-10.449H175.543a26.646 26.646 0 0 1-21.943-12.539 28.733 28.733 0 0 1-2.612-25.078l4.18-9.404 219.951-22.988c24.16-2.661 44.034-20.233 49.633-43.886L449.83 84.917a8.882 8.882 0 0 0-1.569-8.88zm-43.885 109.191c-3.392 15.226-16.319 26.457-31.869 27.69l-217.339 22.465-48.588-147.33 320.261 4.702-22.465 92.473z" data-original="#000000"/></symbol><symbol id="settings" viewBox="0 0 24 24"><path d="M13.12 24h-2.24a1.498 1.498 0 0 1-1.486-1.32l-.239-1.876a9.45 9.45 0 0 1-1.374-.569l-1.494 1.161a1.492 1.492 0 0 1-1.985-.126l-1.575-1.575a1.488 1.488 0 0 1-.122-1.979l1.161-1.495a9.232 9.232 0 0 1-.569-1.374l-1.88-.239A1.501 1.501 0 0 1 0 13.12v-2.24c0-.757.567-1.396 1.32-1.486l1.876-.239a9.45 9.45 0 0 1 .569-1.374l-1.16-1.494a1.49 1.49 0 0 1 .127-1.986l1.575-1.575a1.489 1.489 0 0 1 1.979-.122L7.78 3.766a9.416 9.416 0 0 1 1.375-.569l.239-1.88C9.484.567 10.123 0 10.88 0h2.24c.757 0 1.396.567 1.486 1.32l.239 1.876c.478.155.938.346 1.375.569l1.494-1.161a1.49 1.49 0 0 1 1.985.127l1.575 1.575c.537.521.591 1.374.122 1.979L20.235 7.78c.224.437.415.897.569 1.374l1.88.239A1.5 1.5 0 0 1 24 10.88v2.24c0 .757-.567 1.396-1.32 1.486l-1.876.239a9.45 9.45 0 0 1-.569 1.374l1.161 1.494a1.49 1.49 0 0 1-.127 1.985l-1.575 1.575a1.487 1.487 0 0 1-1.979.122l-1.495-1.161a9.232 9.232 0 0 1-1.374.569l-.239 1.88A1.5 1.5 0 0 1 13.12 24zm-5.39-4.86c.083 0 .168.021.244.063a8.393 8.393 0 0 0 1.774.736.5.5 0 0 1 .358.417l.28 2.2c.03.251.247.444.494.444h2.24a.504.504 0 0 0 .493-.439l.281-2.204a.5.5 0 0 1 .358-.417 8.393 8.393 0 0 0 1.774-.736.499.499 0 0 1 .55.042l1.75 1.36a.492.492 0 0 0 .655-.034l1.585-1.585a.495.495 0 0 0 .039-.66l-1.36-1.75a.5.5 0 0 1-.042-.55 8.393 8.393 0 0 0 .736-1.774.5.5 0 0 1 .417-.358l2.2-.28A.507.507 0 0 0 23 13.12v-2.24a.504.504 0 0 0-.439-.493l-2.204-.281a.5.5 0 0 1-.417-.358 8.393 8.393 0 0 0-.736-1.774.497.497 0 0 1 .042-.55l1.36-1.75a.49.49 0 0 0-.033-.654l-1.585-1.585a.492.492 0 0 0-.66-.039l-1.75 1.36a.5.5 0 0 1-.551.042 8.359 8.359 0 0 0-1.774-.736.5.5 0 0 1-.358-.417l-.28-2.2A.507.507 0 0 0 13.12 1h-2.24a.504.504 0 0 0-.493.439l-.281 2.204a.502.502 0 0 1-.358.418 8.356 8.356 0 0 0-1.774.735.5.5 0 0 1-.551-.041l-1.75-1.36a.49.49 0 0 0-.654.033L3.434 5.014a.495.495 0 0 0-.039.66l1.36 1.75a.5.5 0 0 1 .042.55 8.341 8.341 0 0 0-.736 1.774.5.5 0 0 1-.417.358l-2.2.28A.505.505 0 0 0 1 10.88v2.24c0 .247.193.464.439.493l2.204.281a.5.5 0 0 1 .417.358c.18.626.428 1.223.736 1.774a.497.497 0 0 1-.042.55l-1.36 1.75a.49.49 0 0 0 .033.654l1.585 1.585a.494.494 0 0 0 .66.039l1.75-1.36a.515.515 0 0 1 .308-.104z" data-original="#000000"/><path d="M12 17c-2.757 0-5-2.243-5-5s2.243-5 5-5 5 2.243 5 5-2.243 5-5 5zm0-9c-2.206 0-4 1.794-4 4s1.794 4 4 4 4-1.794 4-4-1.794-4-4-4z" data-original="#000000"/></symbol></svg>