<?xml version="1.0" standalone="no"?>
<!DOCTYPE svg PUBLIC "-//W3C//DTD SVG 20010904//EN"
 "http://www.w3.org/TR/2001/REC-SVG-20010904/DTD/svg10.dtd">
<svg version="1.0" xmlns="http://www.w3.org/2000/svg"
 width="835.000000pt" height="835.000000pt" viewBox="0 0 835.000000 835.000000"
 preserveAspectRatio="xMidYMid meet">
<metadata>
Created by potrace 1.14, written by Peter Selinger 2001-2017
</metadata>
<g transform="translate(0.000000,835.000000) scale(0.100000,-0.100000)"
fill="#000000" stroke="none">
<path d="M2959 5806 c-42 -21 -50 -51 -27 -115 11 -31 21 -60 22 -66 1 -5 4
-14 7 -20 5 -8 30 -76 34 -95 1 -3 4 -12 8 -20 5 -14 68 -189 139 -390 86
-244 100 -277 135 -313 47 -50 105 -78 172 -84 31 -2 541 -5 1134 -6 1184 -2
1104 2 1091 -62 -8 -42 -45 -148 -56 -160 -6 -7 -343 -10 -971 -11 l-962 -1
-47 -22 c-88 -43 -145 -122 -155 -215 -4 -42 2 -72 35 -171 22 -66 44 -131 50
-145 13 -31 24 -62 28 -75 1 -5 16 -48 34 -95 17 -47 44 -121 59 -165 56 -158
71 -191 103 -225 57 -62 114 -88 205 -93 l51 -3 12 39 c7 23 32 59 64 91 66
67 119 86 220 82 112 -6 188 -57 239 -163 l21 -43 212 0 212 0 22 44 c93 193
336 226 474 64 20 -23 41 -57 48 -75 l12 -34 74 2 c70 2 74 4 98 34 13 18 24
36 24 41 0 5 20 72 45 149 60 186 62 196 32 231 l-24 27 -819 -1 c-450 -1
-831 1 -845 4 -22 4 -31 17 -53 73 -35 90 -42 133 -24 149 11 8 236 12 889 14
943 3 891 0 965 55 52 39 101 127 119 214 2 9 22 76 45 150 23 74 52 170 64
214 13 44 28 90 35 103 6 12 10 22 7 22 -3 0 4 26 16 58 41 114 21 225 -53
302 -32 34 -46 42 -112 69 -20 8 -357 11 -1206 11 -1052 0 -1181 2 -1210 16
-35 17 -44 30 -66 100 -9 27 -20 58 -24 69 -5 11 -20 52 -34 90 -63 174 -77
214 -98 274 -18 52 -28 66 -53 76 -41 17 -384 18 -417 1z"/>
<path d="M2450 3397 c-79 -20 -77 -132 3 -152 12 -3 169 -5 349 -3 363 3 353
2 364 69 5 28 1 41 -18 64 l-25 28 -321 1 c-177 1 -335 -2 -352 -7z"/>
<path d="M3370 3402 c-19 -2 -45 -13 -56 -24 -24 -21 -37 -65 -22 -74 4 -3 6
-9 3 -13 -2 -5 5 -17 16 -27 18 -16 41 -19 155 -22 l134 -4 31 31 c26 27 30
36 24 64 -13 59 -34 69 -148 71 -56 0 -118 0 -137 -2z"/>
<path d="M5266 3398 c-51 -11 -98 -40 -128 -81 -32 -43 -40 -63 -43 -121 -8
-119 90 -219 215 -219 83 0 150 42 189 119 79 153 -64 338 -233 302z"/>
<path d="M4242 3388 c-18 -6 -50 -30 -71 -54 -94 -101 -74 -252 43 -329 44
-29 115 -37 174 -20 45 14 110 62 111 83 1 6 5 12 10 12 12 0 31 78 29 120 -3
74 -55 150 -123 181 -44 20 -121 23 -173 7z"/>
<path d="M2100 3113 c-67 -56 -17 -150 74 -139 81 11 112 75 64 131 -34 38
-98 42 -138 8z"/>
<path d="M2421 3124 c-46 -20 -59 -79 -26 -120 l23 -29 190 0 c188 0 191 0
216 24 20 19 26 33 24 58 -1 18 -6 33 -10 33 -4 0 -8 6 -8 14 0 8 -10 18 -22
22 -39 13 -356 11 -387 -2z"/>
<path d="M2994 3113 c-13 -12 -24 -26 -25 -30 0 -4 -2 -15 -4 -25 -5 -27 31
-75 61 -81 16 -3 226 -4 466 -3 423 1 438 2 457 21 34 34 37 77 8 111 l-25 29
-457 0 -457 0 -24 -22z"/>
<path d="M2853 2340 c-35 -9 -81 -30 -104 -45 -49 -32 -109 -94 -109 -112 0
-7 -4 -13 -8 -13 -8 0 -26 -50 -38 -104 -10 -43 -5 -139 10 -181 53 -150 167
-236 323 -241 85 -3 161 14 196 44 9 8 17 12 17 9 0 -4 10 1 21 11 173 141
187 398 30 545 -61 57 -120 84 -204 93 -34 3 -64 8 -67 9 -3 1 -33 -5 -67 -15z"/>
<path d="M2103 2340 c-60 -13 -143 -63 -179 -107 -99 -121 -106 -327 -16 -458
31 -45 122 -110 167 -120 61 -12 157 -13 208 0 66 16 102 35 148 79 32 32 89
130 89 155 0 13 -5 13 -120 15 l-85 2 -39 -38 c-101 -98 -243 -9 -230 145 12
141 151 198 242 100 27 -29 28 -30 122 -28 119 3 113 2 105 23 -4 9 -8 22 -9
27 -14 68 -104 160 -187 190 -56 20 -160 27 -216 15z"/>
<path d="M6599 2336 c-101 -26 -172 -87 -218 -186 -21 -47 -25 -69 -25 -155
-1 -88 2 -107 25 -156 29 -61 93 -139 114 -139 7 0 15 -4 17 -9 8 -22 115 -49
188 -47 148 4 251 67 304 186 15 33 25 64 22 68 -2 4 -50 7 -105 7 -98 -1
-102 -2 -128 -29 -74 -80 -191 -57 -224 43 -63 186 119 330 233 186 16 -20 25
-22 118 -20 55 1 103 5 106 8 10 10 -41 111 -75 150 -51 57 -144 98 -233 102
-40 1 -94 -3 -119 -9z"/>
<path d="M789 2338 c-4 -7 -5 -674 -2 -683 2 -6 82 -10 216 -10 l212 1 0 79 0
80 -110 2 c-60 1 -113 2 -117 2 -6 1 -5 83 1 111 0 3 46 5 101 4 l99 -2 0 77
-1 76 -91 2 c-51 1 -98 2 -104 2 -9 1 -12 17 -11 51 l3 50 117 0 117 0 -2 78
-2 77 -212 3 c-117 1 -214 1 -214 0z"/>
<path d="M3377 2332 c-3 -4 -6 -159 -6 -345 0 -258 2 -337 12 -338 66 -5 179
-3 183 3 3 4 5 80 5 170 0 120 3 158 10 145 6 -11 12 -24 13 -30 1 -7 4 -16 7
-22 3 -5 23 -63 44 -128 20 -65 43 -124 50 -131 12 -12 28 -12 152 -7 13 1 22
4 22 9 -2 9 -4 3 37 117 19 55 36 105 37 110 2 6 5 15 9 20 3 6 9 25 13 42 15
71 20 34 18 -128 -1 -93 1 -169 5 -170 41 -5 184 -4 187 2 4 6 7 323 5 602 l0
87 -118 0 -119 0 -31 -81 c-18 -44 -32 -87 -32 -95 0 -8 -5 -14 -10 -14 -6 0
-9 -3 -8 -7 3 -8 -24 -85 -47 -138 -7 -16 -17 -42 -20 -57 -4 -16 -10 -28 -14
-28 -5 0 -61 128 -67 155 -2 6 -25 66 -52 135 l-49 125 -116 3 c-63 1 -118 -1
-120 -6z"/>
<path d="M4279 2308 c0 -39 0 -639 0 -653 1 -6 41 -10 99 -10 l97 0 0 168 c0
92 2 167 5 167 4 0 73 -190 76 -209 0 -3 3 -13 7 -21 3 -8 13 -35 22 -60 l16
-45 72 1 c103 3 104 3 104 17 1 15 101 308 107 315 3 3 5 -68 5 -158 0 -105 3
-165 10 -169 6 -4 50 -6 98 -6 l88 1 2 347 1 348 -120 -3 -121 -3 -44 -120
c-25 -66 -49 -129 -54 -140 -5 -11 -20 -48 -32 -83 -12 -35 -26 -63 -31 -63
-5 0 -20 28 -33 63 -14 35 -40 101 -58 148 -19 47 -43 111 -55 143 l-21 57
-120 0 -119 0 -1 -32z"/>
<path d="M5188 2333 c-2 -5 -4 -161 -3 -348 l0 -339 225 -1 225 0 -2 60 c-1
33 -2 69 -2 81 -1 20 -6 21 -121 20 -72 -1 -121 3 -123 9 -3 9 -2 53 2 95 1
12 20 15 108 15 l106 0 1 73 c1 41 -3 73 -9 74 -5 0 -48 2 -95 3 -47 2 -92 3
-101 4 -12 1 -15 12 -14 49 l1 47 124 5 123 5 1 78 1 77 -222 0 c-122 0 -223
-3 -225 -7z"/>
<path d="M5720 2310 c4 -16 6 -31 3 -34 -7 -7 -6 -613 1 -624 4 -7 84 -8 172
-3 20 1 21 6 22 114 0 61 1 119 1 127 1 16 51 -52 51 -69 0 -6 5 -11 10 -11 6
0 10 -7 10 -15 0 -8 14 -37 30 -65 17 -28 30 -55 30 -60 0 -5 5 -12 12 -16 12
-8 194 -13 214 -7 11 4 -20 68 -84 173 -47 78 -53 93 -40 101 68 38 88 56 107
98 44 92 20 210 -52 265 -62 48 -113 57 -314 56 l-181 -2 8 -28z"/>
<path d="M7109 2328 c-3 -39 -4 -655 -1 -668 3 -13 33 -15 210 -14 114 1 214
2 222 3 12 1 15 14 13 58 -3 114 13 101 -123 100 -100 -2 -120 0 -121 13 -5
60 -4 92 5 97 5 3 54 6 110 7 l100 1 0 75 1 75 -100 0 c-55 0 -105 3 -111 7
-8 6 -11 49 -5 91 1 4 55 7 121 7 66 0 120 3 121 8 0 4 1 40 2 80 l2 72 -222
0 c-171 0 -223 -3 -224 -12z"/>
<path d="M1291 2070 c-5 -4 -7 -126 -2 -158 2 -12 441 -10 442 3 4 43 3 139
-2 147 -7 11 -424 18 -438 8z"/>
</g>
</svg>
