<?xml version="1.0" encoding="UTF-8" ?>
<!DOCTYPE svg PUBLIC "-//W3C//DTD SVG 1.1//EN" "http://www.w3.org/Graphics/SVG/1.1/DTD/svg11.dtd">
<svg width="626pt" height="420pt" viewBox="0 0 626 420" version="1.1" xmlns="http://www.w3.org/2000/svg">
<g id="#ffffffff">
<path fill="#ffffff" opacity="1.00" d=" M 218.19 361.20 C 221.68 360.53 225.62 361.23 228.28 363.72 C 233.50 369.11 233.41 378.78 228.04 384.04 C 224.28 387.21 218.39 387.37 214.30 384.75 C 206.53 378.98 207.90 363.30 218.19 361.20 Z" />
<path fill="#ffffff" opacity="1.00" d=" M 443.70 360.55 C 446.75 360.60 449.89 360.24 452.87 361.05 C 456.85 362.33 456.92 368.87 452.93 370.16 C 450.00 370.97 446.91 370.56 443.92 370.75 C 443.53 367.36 443.68 363.95 443.70 360.55 Z" />
</g>
<g id="#0d3795ff">
<path fill="#0d3795" opacity="1.00" d=" M 219.11 94.90 C 217.44 91.52 220.22 87.21 223.97 87.30 C 232.34 87.05 240.71 87.26 249.08 87.19 C 251.88 87.04 255.25 88.02 256.04 91.07 C 260.78 103.99 265.29 116.99 270.02 129.91 C 271.22 133.69 275.29 135.15 278.93 134.92 C 333.63 134.92 388.32 134.93 443.02 134.91 C 448.06 134.92 453.42 134.59 458.02 137.03 C 464.51 140.04 468.66 146.93 469.02 153.98 C 469.25 157.71 467.83 161.25 466.79 164.77 C 462.32 179.39 457.83 193.99 453.40 208.62 C 452.42 212.95 450.29 216.99 446.89 219.91 C 443.00 223.76 437.36 224.86 432.08 224.92 C 391.36 224.95 350.65 224.90 309.93 224.95 C 307.64 224.55 305.13 226.57 305.77 229.00 C 306.87 232.84 308.38 236.55 309.75 240.30 C 310.22 242.15 312.19 242.94 313.94 242.88 C 354.30 242.93 394.66 242.74 435.02 242.82 C 438.61 242.54 441.65 246.46 440.48 249.86 C 437.87 258.41 435.25 266.97 432.46 275.47 C 430.05 280.72 423.20 278.57 418.66 278.99 C 417.00 272.98 412.60 267.76 407.00 265.05 C 400.26 262.07 391.91 262.53 385.81 266.77 C 381.71 269.80 378.49 274.08 377.13 279.04 C 366.42 279.05 355.71 279.09 345.01 279.07 C 343.19 272.75 338.51 267.19 332.40 264.65 C 325.58 262.05 317.33 262.74 311.45 267.25 C 307.75 270.28 304.57 274.26 303.54 279.03 C 297.37 279.57 290.52 278.57 285.92 274.05 C 283.16 271.65 281.08 268.53 280.06 265.02 C 274.11 248.27 268.01 231.58 262.04 214.84 C 259.71 208.19 261.13 200.18 266.18 195.14 C 270.02 190.58 276.10 188.61 281.93 188.71 C 326.95 188.70 371.98 188.68 417.01 188.72 C 418.99 188.75 421.75 188.51 422.34 186.18 C 423.52 182.47 424.80 178.78 425.67 174.99 C 426.19 172.25 423.34 170.93 421.03 171.13 C 367.68 171.08 314.34 171.15 261.00 171.09 C 252.67 171.34 244.43 166.09 241.67 158.16 C 234.19 137.06 226.58 116.00 219.11 94.90 Z" />
<path fill="#0d3795" opacity="1.00" d=" M 58.85 348.05 C 69.66 347.91 80.47 348.01 91.28 347.99 C 91.28 352.00 91.28 356.01 91.28 360.03 C 85.41 360.04 79.55 360.03 73.69 360.04 C 73.68 362.63 73.68 365.22 73.69 367.82 C 78.82 367.82 83.95 367.81 89.08 367.82 C 89.09 371.64 89.09 375.46 89.08 379.29 C 84.02 379.27 78.96 379.35 73.90 379.23 C 73.61 382.12 73.63 385.04 73.70 387.95 C 79.53 387.97 85.36 387.91 91.19 387.99 C 91.33 391.99 91.28 396.00 91.27 400.00 C 80.44 400.00 69.62 400.00 58.79 400.00 C 58.82 382.68 58.69 365.36 58.85 348.05 Z" />
<path fill="#0d3795" opacity="1.00" d=" M 96.32 368.18 C 107.53 368.17 118.75 368.18 129.97 368.18 C 129.98 372.34 129.98 376.51 129.96 380.68 C 118.79 380.65 107.61 380.74 96.44 380.64 C 96.22 376.49 96.34 372.33 96.32 368.18 Z" />
</g>
<g id="#dc662eff">
<path fill="#dc662e" opacity="1.00" d=" M 185.22 268.32 C 199.80 268.14 214.39 268.33 228.98 268.23 C 231.39 268.26 234.22 268.14 235.99 270.12 C 238.18 272.22 238.33 275.99 236.29 278.24 C 234.58 280.49 231.51 280.45 228.97 280.47 C 214.67 280.39 200.36 280.49 186.07 280.42 C 183.14 280.63 180.15 278.87 179.39 275.96 C 178.22 272.28 181.38 268.19 185.22 268.32 Z" />
<path fill="#dc662e" opacity="1.00" d=" M 252.31 268.34 C 257.77 268.20 263.24 268.13 268.70 268.38 C 273.24 268.53 275.89 274.54 272.92 278.01 C 269.80 281.80 264.27 280.05 260.02 280.44 C 255.83 280.12 250.11 281.77 247.40 277.56 C 244.72 273.91 247.85 268.23 252.31 268.34 Z" />
<path fill="#dc662e" opacity="1.00" d=" M 320.43 268.73 C 324.72 267.93 329.47 268.36 333.11 270.94 C 339.67 275.24 342.60 284.63 338.56 291.60 C 335.49 298.02 327.89 301.60 320.97 300.07 C 312.82 298.68 306.84 290.12 308.21 281.99 C 309.20 275.73 314.14 270.04 320.43 268.73 Z" />
<path fill="#dc662e" opacity="1.00" d=" M 395.43 268.52 C 404.66 266.69 414.11 274.61 413.97 283.97 C 414.52 292.64 406.67 300.66 397.99 300.39 C 390.23 300.69 383.22 294.51 381.93 286.98 C 380.33 278.55 386.87 269.49 395.43 268.52 Z" />
<path fill="#dc662e" opacity="1.00" d=" M 159.44 288.64 C 163.50 287.34 169.19 289.15 169.45 294.04 C 170.03 301.46 157.93 303.04 155.45 296.66 C 154.06 293.49 156.10 289.45 159.44 288.64 Z" />
<path fill="#dc662e" opacity="1.00" d=" M 184.34 288.39 C 192.11 288.31 199.90 288.26 207.67 288.41 C 211.81 288.30 215.03 293.13 213.13 296.87 C 212.13 299.33 209.48 300.61 206.92 300.52 C 199.33 300.54 191.73 300.63 184.15 300.48 C 180.76 300.54 177.78 297.42 178.09 294.03 C 178.25 290.85 181.19 288.29 184.34 288.39 Z" />
<path fill="#dc662e" opacity="1.00" d=" M 228.32 288.41 C 249.57 288.29 270.82 288.29 292.07 288.40 C 296.23 288.20 299.61 292.99 297.74 296.79 C 296.71 299.49 293.71 300.69 290.99 300.54 C 270.64 300.57 250.29 300.53 229.95 300.56 C 227.18 300.70 224.06 299.77 222.89 297.03 C 220.85 293.26 224.09 288.27 228.32 288.41 Z" />
<path fill="#dc662e" opacity="1.00" d=" M 215.44 347.63 C 223.25 346.28 231.80 347.85 237.91 353.12 C 250.45 362.90 250.58 384.26 238.21 394.25 C 232.99 398.84 225.93 400.93 219.04 400.42 C 208.97 400.25 199.67 393.37 195.87 384.17 C 193.28 377.19 193.37 369.15 196.36 362.30 C 199.97 354.81 207.16 348.98 215.44 347.63 M 218.19 361.20 C 207.90 363.30 206.53 378.98 214.30 384.75 C 218.39 387.37 224.28 387.21 228.04 384.04 C 233.41 378.78 233.50 369.11 228.28 363.72 C 225.62 361.23 221.68 360.53 218.19 361.20 Z" />
<path fill="#dc662e" opacity="1.00" d=" M 141.93 359.06 C 149.49 346.07 168.84 343.94 180.38 352.64 C 184.99 356.12 187.81 361.47 188.97 367.06 C 183.64 367.29 178.31 367.16 172.99 367.16 C 170.87 363.29 166.62 360.55 162.10 361.38 C 156.18 362.11 153.11 368.54 153.32 373.97 C 153.16 379.34 156.19 385.71 162.06 386.45 C 166.58 387.29 170.87 384.56 172.99 380.68 C 178.35 380.62 183.70 380.63 189.06 380.69 C 187.43 389.11 181.36 396.64 172.99 399.06 C 164.40 401.44 154.21 400.80 147.18 394.80 C 136.88 386.42 135.61 370.19 141.93 359.06 Z" />
<path fill="#dc662e" opacity="1.00" d=" M 252.85 348.05 C 258.81 347.94 264.76 347.97 270.72 348.02 C 274.97 358.76 278.75 369.71 283.41 380.27 C 287.35 369.54 291.62 358.93 295.40 348.14 C 301.39 347.81 307.40 348.06 313.40 347.99 C 313.37 365.33 313.50 382.66 313.34 400.00 C 308.40 400.00 303.45 400.00 298.51 400.00 C 298.49 391.22 298.54 382.45 298.49 373.67 C 295.42 382.38 292.39 391.11 289.55 399.90 C 285.32 400.09 281.09 399.97 276.85 400.00 C 273.75 391.30 271.06 382.44 267.73 373.82 C 267.58 382.54 267.80 391.27 267.62 400.00 C 262.67 400.00 257.73 400.00 252.78 400.00 C 252.82 382.68 252.69 365.36 252.85 348.05 Z" />
<path fill="#dc662e" opacity="1.00" d=" M 320.85 348.04 C 326.81 347.94 332.76 347.97 338.72 348.02 C 342.91 358.82 346.92 369.69 351.33 380.40 C 355.36 369.64 359.57 358.95 363.43 348.12 C 369.41 347.83 375.41 348.05 381.41 347.99 C 381.38 365.33 381.50 382.66 381.34 400.00 C 376.40 400.00 371.46 400.00 366.51 400.00 C 366.49 391.22 366.54 382.44 366.49 373.67 C 363.41 382.38 360.40 391.12 357.54 399.91 C 353.31 400.08 349.08 399.98 344.85 400.00 C 341.76 391.27 339.02 382.42 335.74 373.76 C 335.57 382.50 335.80 391.25 335.62 400.00 C 330.67 400.00 325.73 400.00 320.78 400.00 C 320.82 382.68 320.69 365.36 320.85 348.04 Z" />
<path fill="#dc662e" opacity="1.00" d=" M 388.85 348.05 C 399.99 347.91 411.13 348.01 422.28 347.99 C 422.28 352.00 422.28 356.01 422.28 360.03 C 416.08 360.04 409.88 360.02 403.69 360.04 C 403.67 362.63 403.68 365.23 403.72 367.84 C 409.17 367.80 414.63 367.82 420.08 367.82 C 420.09 371.64 420.09 375.46 420.08 379.28 C 414.67 379.28 409.27 379.32 403.87 379.25 C 403.64 382.14 403.62 385.05 403.70 387.95 C 409.86 387.97 416.03 387.91 422.19 387.99 C 422.33 391.99 422.29 395.99 422.27 400.00 C 411.11 400.00 399.95 400.00 388.78 400.00 C 388.82 382.68 388.69 365.36 388.85 348.05 Z" />
<path fill="#dc662e" opacity="1.00" d=" M 428.85 348.05 C 436.24 347.94 443.64 347.97 451.03 348.00 C 455.91 348.01 461.06 348.82 465.04 351.85 C 472.58 357.43 473.08 369.91 466.34 376.30 C 464.61 378.00 462.32 378.91 460.14 379.89 C 463.88 386.62 468.00 393.13 471.55 399.97 C 465.98 400.03 460.42 399.97 454.86 400.02 C 451.00 393.65 448.30 386.53 443.81 380.60 C 443.54 387.03 443.75 393.48 443.68 399.92 C 438.71 400.07 433.75 399.97 428.79 400.00 C 428.82 382.68 428.69 365.36 428.85 348.05 M 443.70 360.55 C 443.68 363.95 443.53 367.36 443.92 370.75 C 446.91 370.56 450.00 370.97 452.93 370.16 C 456.92 368.87 456.85 362.33 452.87 361.05 C 449.89 360.24 446.75 360.60 443.70 360.55 Z" />
<path fill="#dc662e" opacity="1.00" d=" M 479.98 358.98 C 488.63 344.22 512.82 343.48 522.77 357.18 C 524.95 360.08 526.13 363.57 526.96 367.07 C 521.64 367.28 516.31 367.17 510.99 367.16 C 508.86 363.28 504.59 360.53 500.06 361.39 C 494.16 362.14 491.10 368.57 491.33 373.98 C 491.16 379.34 494.18 385.68 500.02 386.44 C 504.55 387.30 508.87 384.58 510.99 380.68 C 516.34 380.63 521.70 380.63 527.06 380.69 C 525.40 389.39 518.93 397.08 510.22 399.29 C 502.53 401.12 493.68 400.84 487.01 396.15 C 475.12 388.36 473.16 370.73 479.98 358.98 Z" />
<path fill="#dc662e" opacity="1.00" d=" M 532.85 348.05 C 543.99 347.91 555.13 348.01 566.28 347.99 C 566.28 352.00 566.28 356.01 566.28 360.03 C 560.08 360.04 553.89 360.03 547.69 360.04 C 547.68 362.63 547.68 365.22 547.69 367.82 C 553.15 367.82 558.61 367.81 564.08 367.82 C 564.09 371.64 564.09 375.46 564.08 379.28 C 558.70 379.26 553.32 379.36 547.94 379.21 C 547.59 382.11 547.63 385.03 547.71 387.95 C 553.87 387.97 560.03 387.90 566.20 388.00 C 566.32 392.00 566.29 396.00 566.27 400.00 C 555.11 400.00 543.95 400.00 532.79 400.00 C 532.82 382.68 532.69 365.36 532.85 348.05 Z" />
</g>
</svg>
